<?xml version="1.0" encoding="UTF-8"?>
<svg xmlns="http://www.w3.org/2000/svg" xmlns:xlink="http://www.w3.org/1999/xlink" width="72pt" height="72pt" viewBox="0 0 72 72" version="1.1">
<defs>
<clipPath id="clip1">
  <path d="M 6.054688 42.113281 L 65.945312 42.113281 L 65.945312 66.253906 L 6.054688 66.253906 Z M 6.054688 42.113281 "/>
</clipPath>
<clipPath id="clip2">
  <path d="M 5.746094 5.746094 L 66.253906 5.746094 L 66.253906 65.945312 L 5.746094 65.945312 Z M 5.746094 5.746094 "/>
</clipPath>
</defs>
<g id="surface1">
<g clip-path="url(#clip1)" clip-rule="nonzero">
<path style=" stroke:none;fill-rule:nonzero;fill:rgb(81.176471%,67.058824%,47.058824%);fill-opacity:1;" d="M 64.835938 66.253906 L 7.164062 66.253906 C 6.636719 66.253906 6.21875 65.828125 6.21875 65.308594 C 6.21875 64.78125 6.636719 64.363281 7.164062 64.363281 L 64.835938 64.363281 C 65.359375 64.363281 65.78125 64.78125 65.78125 65.308594 C 65.78125 65.828125 65.359375 66.253906 64.835938 66.253906 Z M 23.707031 52.492188 C 22.929688 52.492188 22.289062 51.855469 22.289062 51.074219 L 22.289062 43.785156 C 22.289062 43.011719 22.929688 42.367188 23.707031 42.367188 C 24.496094 42.367188 25.125 43.011719 25.125 43.785156 L 25.125 51.074219 C 25.125 51.855469 24.496094 52.492188 23.707031 52.492188 Z M 45.453125 60.703125 C 45.210938 60.703125 44.964844 60.609375 44.785156 60.425781 C 44.414062 60.054688 44.414062 59.460938 44.785156 59.089844 L 54.238281 49.695312 C 54.609375 49.324219 55.207031 49.332031 55.574219 49.695312 C 55.945312 50.070312 55.941406 50.675781 55.574219 51.035156 L 46.121094 60.425781 C 45.933594 60.609375 45.691406 60.703125 45.453125 60.703125 Z M 50.179688 60.699219 C 49.941406 60.699219 49.691406 60.605469 49.503906 60.421875 C 49.140625 60.046875 49.140625 59.449219 49.511719 59.085938 L 54.238281 54.382812 C 54.609375 54.015625 55.207031 54.015625 55.574219 54.390625 C 55.941406 54.761719 55.941406 55.355469 55.574219 55.726562 L 50.847656 60.421875 C 50.667969 60.605469 50.421875 60.699219 50.179688 60.699219 Z M 50.179688 60.699219 "/>
</g>
<g clip-path="url(#clip2)" clip-rule="nonzero">
<path style=" stroke:none;fill-rule:nonzero;fill:rgb(81.176471%,67.058824%,47.058824%);fill-opacity:1;" d="M 10.480469 64.921875 C 10.480469 65.445312 10.898438 65.859375 11.417969 65.859375 C 11.9375 65.859375 12.363281 65.445312 12.363281 64.921875 L 12.363281 40.226562 C 11.71875 40.136719 11.082031 40.003906 10.480469 39.800781 Z M 27.640625 40.242188 L 27.640625 64.921875 C 27.640625 65.445312 28.058594 65.859375 28.578125 65.859375 C 29.097656 65.859375 29.523438 65.445312 29.523438 64.921875 L 29.523438 40.246094 C 29.214844 40.277344 28.925781 40.335938 28.617188 40.335938 C 28.28125 40.335938 27.964844 40.273438 27.640625 40.242188 Z M 59.632812 64.921875 C 59.632812 65.445312 60.058594 65.859375 60.582031 65.859375 C 61.101562 65.859375 61.519531 65.445312 61.519531 64.921875 L 61.519531 39.800781 C 60.917969 40.003906 60.28125 40.132812 59.632812 40.226562 Z M 61.355469 5.746094 L 10.644531 5.746094 L 5.746094 27.652344 L 5.746094 29.402344 C 5.746094 33.867188 9.378906 37.5 13.84375 37.5 C 17.140625 37.5 19.960938 35.53125 21.234375 32.699219 C 22.496094 35.527344 25.324219 37.5 28.621094 37.5 C 31.90625 37.5 34.738281 35.53125 36 32.699219 C 37.261719 35.527344 40.097656 37.5 43.382812 37.5 C 46.675781 37.5 49.503906 35.53125 50.765625 32.699219 C 52.042969 35.527344 54.863281 37.5 58.15625 37.5 C 62.621094 37.5 66.253906 33.867188 66.253906 29.402344 L 66.253906 27.65625 Z M 20.050781 29.402344 C 20.050781 32.828125 17.265625 35.605469 13.84375 35.605469 C 10.421875 35.605469 7.636719 32.828125 7.636719 29.402344 L 7.636719 28.796875 L 20.050781 28.796875 Z M 20.289062 26.878906 L 7.898438 26.878906 L 12.191406 7.65625 L 21.652344 7.65625 Z M 34.824219 29.402344 C 34.824219 32.828125 32.035156 35.605469 28.617188 35.605469 C 25.191406 35.605469 22.410156 32.828125 22.410156 29.402344 L 22.410156 28.800781 L 34.824219 28.800781 Z M 34.882812 26.871094 L 22.304688 26.871094 L 23.671875 7.660156 L 34.882812 7.660156 Z M 49.589844 29.402344 C 49.589844 32.828125 46.808594 35.605469 43.382812 35.605469 C 39.960938 35.605469 37.175781 32.828125 37.175781 29.402344 L 37.175781 28.820312 L 49.589844 28.820312 Z M 36.894531 26.855469 L 36.894531 7.667969 L 48.335938 7.667969 L 49.832031 26.855469 Z M 50.292969 7.652344 L 59.808594 7.652344 L 64.109375 26.878906 L 51.804688 26.878906 Z M 64.363281 29.402344 C 64.363281 32.828125 61.578125 35.605469 58.15625 35.605469 C 54.734375 35.605469 51.945312 32.828125 51.945312 29.402344 L 51.945312 28.796875 L 64.363281 28.796875 Z M 64.363281 29.402344 "/>
</g>
</g>
</svg>
