<?xml version="1.0" encoding="UTF-8"?>
<svg xmlns="http://www.w3.org/2000/svg" xmlns:xlink="http://www.w3.org/1999/xlink" width="72pt" height="72pt" viewBox="0 0 72 72" version="1.1">
<g id="surface1">
<path style=" stroke:none;fill-rule:nonzero;fill:rgb(83.921569%,66.666667%,10.196078%);fill-opacity:1;" d="M 17.957031 49.828125 C 13.621094 49.828125 10.101562 53.347656 10.101562 57.679688 C 10.101562 62.015625 13.621094 65.539062 17.957031 65.539062 C 22.289062 65.539062 25.8125 62.015625 25.8125 57.679688 C 25.8125 53.347656 22.289062 49.828125 17.957031 49.828125 Z M 17.957031 63.292969 C 14.863281 63.292969 12.347656 60.773438 12.347656 57.679688 C 12.34375 54.585938 14.863281 52.070312 17.957031 52.070312 C 21.050781 52.070312 23.570312 54.585938 23.570312 57.679688 C 23.566406 60.773438 21.050781 63.292969 17.957031 63.292969 Z M 53.761719 49.828125 C 49.429688 49.828125 45.90625 53.347656 45.90625 57.679688 C 45.90625 62.015625 49.429688 65.539062 53.761719 65.539062 C 58.089844 65.539062 61.613281 62.015625 61.613281 57.679688 C 61.613281 53.347656 58.089844 49.828125 53.761719 49.828125 Z M 53.761719 63.292969 C 50.660156 63.292969 48.148438 60.773438 48.148438 57.679688 C 48.148438 54.585938 50.660156 52.070312 53.761719 52.070312 C 56.851562 52.070312 59.371094 54.585938 59.371094 57.679688 C 59.371094 60.773438 56.851562 63.292969 53.761719 63.292969 Z M 53.761719 63.292969 "/>
<path style=" stroke:none;fill-rule:nonzero;fill:rgb(83.921569%,66.666667%,10.196078%);fill-opacity:1;" d="M 62.597656 23.316406 C 57.65625 17.144531 51.796875 10.558594 44.679688 10.558594 L 5.75 10.570312 C 5.75 10.570312 5.546875 10.542969 5.21875 10.542969 C 2.691406 10.542969 0 12.023438 0 16.167969 L 0 28.082031 L 29.285156 28.082031 L 29.285156 21.800781 C 29.382812 21.800781 29.523438 21.808594 29.664062 21.949219 L 39.613281 31.898438 C 39.707031 31.992188 39.753906 32.113281 39.753906 32.242188 C 39.753906 32.375 39.707031 32.503906 39.609375 32.59375 L 29.664062 42.550781 C 29.5625 42.652344 29.429688 42.707031 29.28125 42.691406 L 29.28125 36.480469 L 0 36.480469 L 0 52.070312 C 0 57.402344 3.667969 58.804688 5.609375 58.804688 L 8.976562 58.804688 L 8.976562 57.679688 C 8.976562 52.722656 13.003906 48.703125 17.953125 48.703125 C 22.910156 48.703125 26.933594 52.726562 26.933594 57.679688 L 26.933594 58.804688 L 44.78125 58.804688 L 44.78125 57.679688 C 44.78125 52.722656 48.808594 48.703125 53.761719 48.703125 C 58.714844 48.703125 62.738281 52.726562 62.738281 57.679688 L 62.738281 58.804688 L 66.207031 58.804688 C 69.304688 58.804688 71.820312 56.289062 71.820312 53.191406 L 71.820312 43.09375 C 71.824219 36.324219 65.167969 26.519531 62.597656 23.316406 Z M 69.574219 53.191406 C 69.574219 55.046875 68.070312 56.558594 66.207031 56.558594 L 64.929688 56.558594 C 64.355469 50.894531 59.570312 46.460938 53.761719 46.460938 C 47.953125 46.460938 43.15625 50.894531 42.589844 56.558594 L 29.121094 56.558594 C 28.558594 50.894531 23.761719 46.460938 17.957031 46.460938 C 12.148438 46.460938 7.351562 50.894531 6.789062 56.558594 L 5.609375 56.558594 C 5.476562 56.558594 2.246094 56.5 2.246094 52.070312 L 2.246094 38.726562 L 27.039062 38.726562 L 27.039062 43.816406 L 27.367188 44.140625 C 28.398438 45.167969 30.214844 45.167969 31.253906 44.140625 L 41.191406 34.1875 C 41.710938 33.675781 42 32.980469 42 32.242188 C 42 31.511719 41.710938 30.8125 41.191406 30.308594 L 31.246094 20.355469 C 30.203125 19.324219 28.398438 19.324219 27.359375 20.367188 L 27.039062 20.691406 L 27.039062 25.839844 L 2.246094 25.839844 L 2.246094 16.167969 C 2.246094 13.371094 3.863281 12.792969 5.21875 12.792969 C 5.359375 12.792969 5.457031 12.792969 5.609375 12.800781 L 44.679688 12.800781 C 47.289062 12.800781 49.773438 13.925781 52.121094 15.652344 L 52.175781 27.855469 C 52.171875 27.949219 52 30.417969 53.542969 32.089844 C 54.441406 33.058594 55.675781 33.554688 57.226562 33.554688 L 62.84375 33.554688 C 63.464844 33.554688 63.96875 33.050781 63.96875 32.4375 C 63.96875 31.8125 63.464844 31.308594 62.84375 31.308594 L 57.234375 31.308594 C 56.332031 31.308594 55.664062 31.066406 55.199219 30.574219 C 54.316406 29.625 54.414062 28.027344 54.414062 27.929688 L 54.371094 17.511719 C 56.675781 19.628906 58.839844 22.210938 60.847656 24.71875 C 64.472656 29.253906 69.574219 37.945312 69.574219 43.09375 Z M 69.574219 53.191406 "/>
</g>
</svg>
