<?xml version="1.0" encoding="UTF-8"?>
<svg xmlns="http://www.w3.org/2000/svg" xmlns:xlink="http://www.w3.org/1999/xlink" width="72pt" height="72pt" viewBox="0 0 72 72" version="1.1">
<g id="surface1">
<path style=" stroke:none;fill-rule:nonzero;fill:rgb(83.921569%,66.666667%,10.196078%);fill-opacity:1;" d="M 35.914062 51.625 C 35.539062 51.625 35.199219 51.433594 34.988281 51.128906 L 19.648438 28.339844 C 15.347656 20.894531 16.574219 11.539062 22.589844 5.519531 C 26.148438 1.957031 30.882812 0 35.914062 0 C 40.949219 0 45.6875 1.957031 49.25 5.519531 C 55.269531 11.539062 56.488281 20.894531 52.222656 28.265625 L 36.855469 51.128906 C 36.644531 51.433594 36.292969 51.625 35.914062 51.625 Z M 35.914062 2.242188 C 31.488281 2.242188 27.3125 3.972656 24.179688 7.105469 C 18.875 12.410156 17.792969 20.648438 21.554688 27.140625 L 35.914062 48.484375 L 50.320312 27.085938 C 54.039062 20.648438 52.960938 12.410156 47.664062 7.105469 C 44.527344 3.972656 40.355469 2.242188 35.914062 2.242188 Z M 35.914062 2.242188 "/>
<path style=" stroke:none;fill-rule:nonzero;fill:rgb(83.921569%,66.666667%,10.196078%);fill-opacity:1;" d="M 35.914062 29.066406 C 33.183594 29.066406 30.625 28.003906 28.691406 26.074219 C 26.765625 24.152344 25.703125 21.582031 25.703125 18.855469 C 25.703125 16.117188 26.757812 13.550781 28.691406 11.621094 C 30.625 9.695312 33.183594 8.625 35.914062 8.625 C 38.640625 8.625 41.214844 9.695312 43.144531 11.621094 C 45.074219 13.550781 46.140625 16.117188 46.140625 18.847656 C 46.140625 21.582031 45.074219 24.152344 43.144531 26.074219 C 41.214844 28.003906 38.652344 29.066406 35.914062 29.066406 Z M 35.914062 10.871094 C 33.789062 10.871094 31.789062 11.699219 30.28125 13.207031 C 28.773438 14.714844 27.945312 16.714844 27.945312 18.847656 C 27.945312 20.980469 28.773438 22.980469 30.28125 24.488281 C 33.296875 27.496094 38.542969 27.496094 41.5625 24.488281 C 43.070312 22.980469 43.890625 20.980469 43.890625 18.847656 C 43.890625 16.714844 43.0625 14.714844 41.5625 13.207031 C 40.050781 11.699219 38.054688 10.871094 35.914062 10.871094 Z M 70.964844 64.757812 C 70.964844 64.757812 66.132812 50.300781 63.300781 41.734375 C 62.324219 38.785156 60.015625 37.316406 56.113281 35.660156 L 52.601562 34.070312 L 51.328125 35.964844 L 55.21875 37.71875 C 59.082031 39.367188 60.527344 40.507812 61.164062 42.4375 C 64 51.011719 68.835938 65.472656 68.847656 65.480469 C 69.910156 68.605469 69.507812 69.296875 69.472656 69.363281 C 69.339844 69.519531 68.464844 69.609375 66.007812 68.488281 L 50.757812 61.066406 C 50.4375 60.90625 50.066406 60.910156 49.75 61.078125 L 35.910156 68.246094 L 21.339844 61.066406 C 21.023438 60.90625 20.652344 60.910156 20.335938 61.078125 L 5.820312 68.488281 C 3.179688 69.773438 2.347656 69.542969 2.339844 69.542969 C 2.320312 69.519531 1.867188 68.941406 2.996094 65.472656 C 2.996094 65.472656 7.832031 51.011719 10.667969 42.4375 C 11.292969 40.566406 12.519531 39.589844 16.644531 37.703125 L 20.523438 35.980469 L 19.246094 34.085938 L 15.710938 35.660156 C 11.503906 37.59375 9.46875 38.921875 8.542969 41.734375 C 5.707031 50.300781 0.863281 64.757812 0.863281 64.769531 C -0.167969 67.945312 -0.269531 69.765625 0.523438 70.859375 C 0.847656 71.296875 1.472656 71.824219 2.609375 71.824219 C 3.625 71.824219 4.957031 71.40625 6.824219 70.503906 L 20.855469 63.324219 L 35.421875 70.503906 C 35.746094 70.660156 36.117188 70.660156 36.433594 70.492188 L 50.28125 63.324219 L 65.058594 70.523438 C 66.792969 71.316406 68.070312 71.6875 69.089844 71.6875 C 70.300781 71.6875 70.949219 71.132812 71.285156 70.671875 C 72.089844 69.546875 71.996094 67.773438 70.964844 64.757812 Z M 70.964844 64.757812 "/>
</g>
</svg>
