<?xml version="1.0" encoding="UTF-8"?>
<svg xmlns="http://www.w3.org/2000/svg" xmlns:xlink="http://www.w3.org/1999/xlink" width="72pt" height="72pt" viewBox="0 0 72 72" version="1.1">
<g id="surface1">
<path style=" stroke:none;fill-rule:nonzero;fill:rgb(83.921569%,66.666667%,10.196078%);fill-opacity:1;" d="M 66.214844 5.328125 L 5.609375 5.328125 C 2.519531 5.328125 0 7.84375 0 10.941406 L 0 46.855469 C 0 49.949219 2.519531 52.46875 5.609375 52.46875 L 34.078125 52.46875 L 34.078125 50.222656 L 5.609375 50.222656 C 3.753906 50.222656 2.246094 48.707031 2.246094 46.855469 L 2.246094 10.941406 C 2.246094 9.078125 3.753906 7.574219 5.609375 7.574219 L 66.214844 7.574219 C 68.070312 7.574219 69.578125 9.078125 69.578125 10.941406 L 69.578125 33.707031 C 69.972656 33.707031 71.46875 33.617188 71.820312 33.707031 L 71.820312 10.941406 C 71.824219 7.84375 69.304688 5.328125 66.214844 5.328125 Z M 66.214844 5.328125 "/>
<path style=" stroke:none;fill-rule:nonzero;fill:rgb(83.921569%,66.666667%,10.196078%);fill-opacity:1;" d="M 7.855469 17.945312 L 13.46875 17.945312 L 13.46875 20.988281 L 7.855469 20.988281 Z M 7.855469 17.945312 "/>
<path style=" stroke:none;fill-rule:nonzero;fill:rgb(83.921569%,66.666667%,10.196078%);fill-opacity:1;" d="M 7.855469 22.988281 L 7.855469 23.984375 C 7.855469 25.222656 8.859375 26.230469 10.101562 26.230469 L 15.460938 26.230469 L 15.460938 22.988281 Z M 25.8125 15.953125 L 25.8125 15.003906 C 25.8125 13.765625 24.808594 12.761719 23.570312 12.761719 L 18.203125 12.761719 L 18.203125 15.953125 Z M 15.460938 12.761719 L 10.101562 12.761719 C 8.855469 12.761719 7.855469 13.765625 7.855469 15.007812 L 7.855469 15.957031 L 15.460938 15.957031 Z M 15.460938 12.761719 "/>
<path style=" stroke:none;fill-rule:nonzero;fill:rgb(83.921569%,66.666667%,10.196078%);fill-opacity:1;" d="M 20.203125 17.945312 L 25.8125 17.945312 L 25.8125 20.988281 L 20.203125 20.988281 Z M 20.203125 17.945312 "/>
<path style=" stroke:none;fill-rule:nonzero;fill:rgb(83.921569%,66.666667%,10.196078%);fill-opacity:1;" d="M 18.203125 26.230469 L 23.570312 26.230469 C 24.808594 26.230469 25.8125 25.226562 25.8125 23.984375 L 25.8125 22.988281 L 18.203125 22.988281 Z M 32.546875 43.488281 L 9.082031 43.488281 C 8.457031 43.488281 7.960938 42.980469 7.960938 42.363281 C 7.960938 41.738281 8.457031 41.238281 9.082031 41.238281 L 32.546875 41.238281 C 33.167969 41.238281 33.667969 41.738281 33.667969 42.363281 C 33.667969 42.980469 33.167969 43.488281 32.546875 43.488281 Z M 32.546875 43.488281 "/>
<path style=" stroke:none;fill-rule:nonzero;fill:rgb(83.921569%,66.666667%,10.196078%);fill-opacity:1;" d="M 38.15625 32.625 L 26.933594 32.625 C 26.316406 32.625 25.8125 33.128906 25.8125 33.75 C 25.8125 34.375 26.316406 34.871094 26.933594 34.871094 L 38.15625 34.871094 C 38.773438 34.871094 39.28125 34.375 39.28125 33.75 C 39.28125 33.128906 38.773438 32.625 38.15625 32.625 Z M 20.632812 32.625 L 9.238281 32.625 C 8.621094 32.625 8.117188 33.128906 8.117188 33.75 C 8.117188 34.375 8.621094 34.871094 9.238281 34.871094 L 20.632812 34.871094 C 21.246094 34.871094 21.753906 34.375 21.753906 33.75 C 21.753906 33.128906 21.25 32.625 20.632812 32.625 Z M 20.632812 32.625 "/>
<path style=" stroke:none;fill-rule:nonzero;fill:rgb(83.921569%,66.666667%,10.196078%);fill-opacity:1;" d="M 70.703125 37.441406 L 66.636719 37.441406 L 66.636719 31.066406 C 66.636719 24.457031 61.246094 19.074219 54.636719 19.074219 C 48.015625 19.074219 42.644531 24.457031 42.644531 31.066406 L 42.644531 37.441406 L 38.566406 37.441406 C 37.949219 37.441406 37.445312 37.9375 37.445312 38.558594 L 37.445312 66.105469 C 37.445312 69.265625 40 71.824219 43.15625 71.824219 L 66.117188 71.824219 C 69.261719 71.824219 71.824219 69.261719 71.824219 66.105469 L 71.824219 38.558594 C 71.824219 37.9375 71.324219 37.441406 70.703125 37.441406 Z M 44.882812 31.066406 C 44.882812 25.691406 49.261719 21.320312 54.632812 21.320312 C 60.011719 21.320312 64.390625 25.691406 64.390625 31.066406 L 64.390625 37.441406 L 44.882812 37.441406 Z M 69.582031 66.105469 C 69.582031 68.023438 68.027344 69.582031 66.117188 69.582031 L 43.15625 69.582031 C 41.242188 69.582031 39.691406 68.023438 39.691406 66.105469 L 39.691406 39.679688 L 69.582031 39.679688 Z M 69.582031 66.105469 "/>
<path style=" stroke:none;fill-rule:nonzero;fill:rgb(83.921569%,66.666667%,10.196078%);fill-opacity:1;" d="M 54.632812 45.863281 C 51.480469 45.863281 48.921875 48.421875 48.921875 51.570312 C 48.921875 53.199219 49.632812 54.75 50.832031 55.828125 L 50.832031 59.613281 C 50.832031 61.699219 52.535156 63.398438 54.632812 63.398438 C 56.722656 63.398438 58.429688 61.699219 58.429688 59.613281 L 58.429688 55.828125 C 59.644531 54.75 60.347656 53.191406 60.347656 51.570312 C 60.347656 48.421875 57.78125 45.863281 54.632812 45.863281 Z M 56.648438 54.382812 L 56.183594 54.71875 L 56.183594 59.613281 C 56.183594 60.464844 55.488281 61.152344 54.632812 61.152344 C 53.773438 61.152344 53.074219 60.464844 53.074219 59.613281 L 53.074219 54.71875 L 52.613281 54.382812 C 51.707031 53.730469 51.167969 52.679688 51.167969 51.570312 C 51.167969 49.664062 52.71875 48.109375 54.632812 48.109375 C 56.542969 48.109375 58.105469 49.664062 58.105469 51.570312 C 58.109375 52.671875 57.554688 53.722656 56.648438 54.382812 Z M 56.648438 54.382812 "/>
</g>
</svg>
